<svg width="24" height="24" viewBox="0 0 24 24" fill="none" xmlns="http://www.w3.org/2000/svg">
<g clip-path="url(#clip0)">
<path d="M21.2499 2.00006H10.311L8.52997 0.21991C8.39008 0.0789185 8.19891 0 8.00006 0H2.75006C1.23303 0 0 1.23303 0 2.75006V15.2499C0 16.767 1.23303 18 2.75006 18H5.26099C5.12695 17.4051 5.20898 16.762 5.53308 16.2001L6.34204 14.8C6.78699 14.029 7.617 13.55 8.508 13.55C8.62903 13.55 8.75006 13.559 8.86798 13.576C9.23895 12.646 10.149 12 11.191 12H12.808C13.8499 12 14.7599 12.6451 15.1309 13.576C15.2499 13.559 15.3701 13.55 15.4911 13.55C16.3821 13.55 17.2119 14.029 17.657 14.8L18.466 16.2001C18.7899 16.762 18.8719 17.4051 18.7379 18H21.249C22.7661 18 23.9991 16.767 23.9991 15.2499V4.74994C24 3.23291 22.767 2.00006 21.2499 2.00006Z" fill="#4E4E4E"/>
<path d="M15.703 19.469C15.7232 19.3139 15.7501 19.1599 15.7501 18.9999C15.7501 18.8389 15.7221 18.6859 15.703 18.5309L16.6041 17.8489C16.8051 17.6969 16.8612 17.4189 16.735 17.2L15.926 15.7999C15.8001 15.5818 15.5311 15.491 15.2991 15.589L14.2622 16.0259C14.0091 15.8329 13.7401 15.663 13.4431 15.539L13.3051 14.438C13.273 14.1879 13.061 14 12.809 14H11.192C10.9401 14 10.7271 14.1879 10.696 14.438L10.5581 15.539C10.2611 15.663 9.99104 15.834 9.73909 16.0259L8.70216 15.589C8.46907 15.491 8.20009 15.5809 8.07411 15.7999L7.26607 17.2C7.14009 17.418 7.19612 17.696 7.39699 17.8489L8.29805 18.5309C8.27809 18.6859 8.25008 18.8389 8.25008 18.9999C8.25008 19.161 8.27809 19.3139 8.29713 19.469L7.39607 20.1509C7.19502 20.3029 7.13899 20.581 7.26515 20.8L8.07411 22.2C8.20009 22.4179 8.46907 22.5089 8.70106 22.411L9.73799 21.973C9.99104 22.166 10.26 22.3359 10.557 22.46L10.6951 23.5609C10.7271 23.8119 10.9392 23.9999 11.1911 23.9999H12.8081C13.0601 23.9999 13.273 23.8119 13.3042 23.562L13.442 22.4609C13.739 22.337 14.0091 22.166 14.2611 21.9739L15.298 22.411C15.5302 22.5089 15.7992 22.419 15.9251 22.2L16.7341 20.7989C16.8601 20.581 16.804 20.3029 16.6032 20.15L15.703 19.469ZM12.0001 20.9999C10.895 20.9999 10 20.1049 10 18.9999C10 17.895 10.895 17 12.0001 17C13.1051 17 14.0001 17.895 14.0001 18.9999C14.0001 20.1049 13.1051 20.9999 12.0001 20.9999Z" fill="#4E4E4E"/>
</g>
<defs>
<clipPath id="clip0">
<rect width="24" height="24" fill="white"/>
</clipPath>
</defs>
</svg>
